<svg width="223" height="53" viewBox="0 0 223 53" fill="none" xmlns="http://www.w3.org/2000/svg">
<path d="M15.2457 39L9.77286 29.3337H7.42738V39H2.4521V14.1947H11.763C13.682 14.1947 15.3167 14.5382 16.6672 15.2253C18.0176 15.8887 19.0245 16.8008 19.6879 17.9617C20.3749 19.0989 20.7185 20.3782 20.7185 21.7998C20.7185 23.4345 20.2446 24.9152 19.297 26.242C18.3493 27.545 16.9396 28.4453 15.068 28.9428L21.0028 39H15.2457ZM7.42738 25.6023H11.5853C12.9357 25.6023 13.9426 25.2825 14.606 24.6428C15.2694 23.9794 15.601 23.0673 15.601 21.9064C15.601 20.7692 15.2694 19.8926 14.606 19.2766C13.9426 18.6369 12.9357 18.3171 11.5853 18.3171H7.42738V25.6023ZM30.1937 18.2105V24.4295H38.5451V28.3742H30.1937V34.9487H39.6112V39H25.2184V14.1592H39.6112V18.2105H30.1937ZM65.3485 39H60.3733L49.1078 21.9774V39H44.1325V14.1592H49.1078L60.3733 31.2172V14.1592H65.3485V39ZM87.1456 14.1947V18.2105H80.5356V39H75.5603V18.2105H68.9503V14.1947H87.1456ZM111.352 14.1947V39H106.377V28.4453H95.751V39H90.7758V14.1947H95.751V24.394H106.377V14.1947H111.352ZM127.763 39.2488C125.441 39.2488 123.309 38.7039 121.366 37.614C119.424 36.5242 117.884 35.0198 116.747 33.1007C115.609 31.158 115.041 28.9665 115.041 26.5263C115.041 24.1097 115.609 21.9419 116.747 20.0229C117.884 18.0801 119.424 16.5639 121.366 15.474C123.309 14.3842 125.441 13.8393 127.763 13.8393C130.109 13.8393 132.241 14.3842 134.16 15.474C136.103 16.5639 137.631 18.0801 138.744 20.0229C139.882 21.9419 140.45 24.1097 140.45 26.5263C140.45 28.9665 139.882 31.158 138.744 33.1007C137.631 35.0198 136.103 36.5242 134.16 37.614C132.217 38.7039 130.085 39.2488 127.763 39.2488ZM127.763 34.8066C129.256 34.8066 130.571 34.4749 131.708 33.8115C132.845 33.1244 133.734 32.1531 134.373 30.8974C135.013 29.6417 135.333 28.1847 135.333 26.5263C135.333 24.8678 135.013 23.4226 134.373 22.1907C133.734 20.935 132.845 19.9755 131.708 19.3121C130.571 18.6487 129.256 18.3171 127.763 18.3171C126.271 18.3171 124.944 18.6487 123.783 19.3121C122.646 19.9755 121.757 20.935 121.118 22.1907C120.478 23.4226 120.158 24.8678 120.158 26.5263C120.158 28.1847 120.478 29.6417 121.118 30.8974C121.757 32.1531 122.646 33.1244 123.783 33.8115C124.944 34.4749 126.271 34.8066 127.763 34.8066ZM149.056 14.1947V29.547C149.056 31.2291 149.494 32.5203 150.371 33.4206C151.247 34.2972 152.479 34.7355 154.067 34.7355C155.678 34.7355 156.922 34.2972 157.798 33.4206C158.675 32.5203 159.113 31.2291 159.113 29.547V14.1947H164.124V29.5114C164.124 31.62 163.662 33.4087 162.738 34.8776C161.838 36.3228 160.617 37.4126 159.078 38.1471C157.561 38.8815 155.867 39.2488 153.996 39.2488C152.148 39.2488 150.466 38.8815 148.949 38.1471C147.457 37.4126 146.272 36.3228 145.396 34.8776C144.519 33.4087 144.081 31.62 144.081 29.5114V14.1947H149.056ZM177.495 39.2488C175.766 39.2488 174.202 38.9526 172.805 38.3603C171.43 37.768 170.341 36.9151 169.535 35.8016C168.73 34.6881 168.315 33.3732 168.291 31.8569H173.622C173.693 32.8757 174.048 33.6812 174.688 34.2735C175.351 34.8658 176.252 35.1619 177.389 35.1619C178.55 35.1619 179.462 34.8895 180.125 34.3446C180.789 33.776 181.12 33.0415 181.12 32.1412C181.12 31.4068 180.895 30.8026 180.445 30.3288C179.995 29.855 179.426 29.4877 178.739 29.2271C178.076 28.9428 177.152 28.6348 175.967 28.3032C174.356 27.8293 173.041 27.3673 172.023 26.9172C171.028 26.4433 170.163 25.7444 169.428 24.8205C168.718 23.8728 168.362 22.6171 168.362 21.0535C168.362 19.5846 168.73 18.3052 169.464 17.2154C170.198 16.1256 171.229 15.2964 172.556 14.7278C173.882 14.1355 175.399 13.8393 177.105 13.8393C179.663 13.8393 181.736 14.4671 183.324 15.7228C184.935 16.9548 185.823 18.6843 185.989 20.9113H180.516C180.469 20.0584 180.102 19.3595 179.415 18.8146C178.751 18.246 177.863 17.9617 176.749 17.9617C175.778 17.9617 174.996 18.2105 174.404 18.708C173.835 19.2055 173.551 19.9281 173.551 20.8758C173.551 21.5391 173.764 22.0959 174.19 22.546C174.641 22.9725 175.186 23.3279 175.825 23.6122C176.489 23.8728 177.413 24.1808 178.597 24.5362C180.208 25.01 181.523 25.4838 182.542 25.9577C183.561 26.4315 184.437 27.1423 185.172 28.0899C185.906 29.0376 186.273 30.2814 186.273 31.8214C186.273 33.1481 185.93 34.3801 185.243 35.5173C184.556 36.6545 183.549 37.5666 182.222 38.2537C180.895 38.9171 179.32 39.2488 177.495 39.2488ZM195.562 18.2105V24.4295H203.913V28.3742H195.562V34.9487H204.979V39H190.587V14.1592H204.979V18.2105H195.562Z" fill="#4A4863"/>
<path d="M217.687 40.4627C216.162 40.4627 214.883 39.9444 213.849 38.9079C212.816 37.8714 212.3 36.5881 212.3 35.058C212.3 33.5279 212.816 32.2446 213.849 31.2081C214.883 30.1716 216.162 29.6533 217.687 29.6533C219.163 29.6533 220.417 30.1716 221.45 31.2081C222.483 32.2446 223 33.5279 223 35.058C223 36.5881 222.483 37.8714 221.45 38.9079C220.417 39.9444 219.163 40.4627 217.687 40.4627Z" fill="#FF2775"/>
</svg>
