<svg width="139" height="33" viewBox="0 0 139 33" fill="none" xmlns="http://www.w3.org/2000/svg">
<path d="M9.46211 24L6.06545 18.0007H4.60975V24H1.52188V8.60477H7.3006C8.49164 8.60477 9.50622 8.81798 10.3444 9.2444C11.1825 9.65612 11.8074 10.2222 12.2191 10.9427C12.6456 11.6485 12.8588 12.4426 12.8588 13.3248C12.8588 14.3394 12.5647 15.2584 11.9765 16.0818C11.3884 16.8906 10.5135 17.4493 9.35183 17.7581L13.0352 24H9.46211ZM4.60975 15.6848H7.19032C8.02846 15.6848 8.65338 15.4863 9.0651 15.0893C9.47681 14.6776 9.68267 14.1115 9.68267 13.391C9.68267 12.6852 9.47681 12.1411 9.0651 11.7588C8.65338 11.3618 8.02846 11.1633 7.19032 11.1633H4.60975V15.6848ZM18.7395 11.0971V14.957H23.9227V17.4052H18.7395V21.4856H24.5844V24H15.6516V8.58272H24.5844V11.0971H18.7395ZM40.5581 24H37.4702L30.4784 13.4351V24H27.3905V8.58272H30.4784L37.4702 19.1697V8.58272H40.5581V24ZM54.0863 8.60477V11.0971H49.9838V24H46.896V11.0971H42.7935V8.60477H54.0863ZM69.1098 8.60477V24H66.022V17.4493H59.4272V24H56.3393V8.60477H59.4272V14.9349H66.022V8.60477H69.1098ZM79.2953 24.1544C77.8543 24.1544 76.5309 23.8162 75.3252 23.1398C74.1195 22.4634 73.1637 21.5297 72.4579 20.3387C71.7521 19.1329 71.3992 17.7728 71.3992 16.2583C71.3992 14.7585 71.7521 13.413 72.4579 12.222C73.1637 11.0163 74.1195 10.0752 75.3252 9.3988C76.5309 8.72241 77.8543 8.38421 79.2953 8.38421C80.751 8.38421 82.0744 8.72241 83.2654 9.3988C84.4712 10.0752 85.4196 11.0163 86.1107 12.222C86.8165 13.413 87.1694 14.7585 87.1694 16.2583C87.1694 17.7728 86.8165 19.1329 86.1107 20.3387C85.4196 21.5297 84.4712 22.4634 83.2654 23.1398C82.0597 23.8162 80.7363 24.1544 79.2953 24.1544ZM79.2953 21.3974C80.2217 21.3974 81.0377 21.1915 81.7435 20.7798C82.4493 20.3534 83.0007 19.7505 83.3978 18.9712C83.7948 18.1919 83.9933 17.2876 83.9933 16.2583C83.9933 15.229 83.7948 14.332 83.3978 13.5674C83.0007 12.7881 82.4493 12.1926 81.7435 11.7809C81.0377 11.3692 80.2217 11.1633 79.2953 11.1633C78.3689 11.1633 77.5455 11.3692 76.825 11.7809C76.1192 12.1926 75.5678 12.7881 75.1708 13.5674C74.7738 14.332 74.5753 15.229 74.5753 16.2583C74.5753 17.2876 74.7738 18.1919 75.1708 18.9712C75.5678 19.7505 76.1192 20.3534 76.825 20.7798C77.5455 21.1915 78.3689 21.3974 79.2953 21.3974ZM92.5104 8.60477V18.1331C92.5104 19.177 92.7824 19.9784 93.3265 20.5372C93.8705 21.0812 94.6352 21.3533 95.6203 21.3533C96.6202 21.3533 97.3922 21.0812 97.9362 20.5372C98.4803 19.9784 98.7523 19.177 98.7523 18.1331V8.60477H101.862V18.111C101.862 19.4197 101.576 20.5298 101.002 21.4415C100.443 22.3384 99.686 23.0148 98.7303 23.4707C97.7892 23.9265 96.7378 24.1544 95.5762 24.1544C94.4293 24.1544 93.3853 23.9265 92.4442 23.4707C91.5179 23.0148 90.7827 22.3384 90.2386 21.4415C89.6946 20.5298 89.4225 19.4197 89.4225 18.111V8.60477H92.5104ZM110.161 24.1544C109.088 24.1544 108.117 23.9706 107.25 23.603C106.397 23.2354 105.721 22.706 105.221 22.0149C104.721 21.3238 104.463 20.5078 104.449 19.5667H107.757C107.801 20.199 108.022 20.6989 108.419 21.0665C108.831 21.4341 109.389 21.6179 110.095 21.6179C110.816 21.6179 111.382 21.4488 111.793 21.1106C112.205 20.7577 112.411 20.3019 112.411 19.7432C112.411 19.2873 112.271 18.9124 111.992 18.6183C111.713 18.3242 111.36 18.0963 110.933 17.9345C110.521 17.7581 109.948 17.5669 109.213 17.3611C108.213 17.067 107.397 16.7803 106.765 16.5009C106.147 16.2068 105.61 15.773 105.154 15.1996C104.713 14.6114 104.493 13.8321 104.493 12.8616C104.493 11.95 104.721 11.1559 105.177 10.4795C105.632 9.80316 106.272 9.28852 107.095 8.93562C107.919 8.56801 108.86 8.38421 109.919 8.38421C111.507 8.38421 112.793 8.77387 113.778 9.55319C114.778 10.3178 115.33 11.3912 115.433 12.7734H112.036C112.007 12.244 111.779 11.8103 111.352 11.4721C110.941 11.1192 110.389 10.9427 109.698 10.9427C109.095 10.9427 108.61 11.0971 108.242 11.4059C107.889 11.7147 107.713 12.1632 107.713 12.7513C107.713 13.1631 107.845 13.5086 108.11 13.788C108.389 14.0527 108.728 14.2732 109.125 14.4497C109.536 14.6114 110.11 14.8026 110.845 15.0231C111.845 15.3172 112.661 15.6113 113.293 15.9054C113.925 16.1995 114.47 16.6406 114.925 17.2287C115.381 17.8169 115.609 18.5889 115.609 19.5446C115.609 20.3681 115.396 21.1327 114.969 21.8385C114.543 22.5443 113.918 23.1104 113.095 23.5368C112.271 23.9485 111.293 24.1544 110.161 24.1544ZM121.374 11.0971V14.957H126.557V17.4052H121.374V21.4856H127.219V24H118.286V8.58272H127.219V11.0971H121.374Z" fill="#4A4863"/>
<path d="M135.691 25.0249C134.742 25.0249 133.945 24.7041 133.302 24.0624C132.659 23.4208 132.337 22.6263 132.337 21.6791C132.337 20.7319 132.659 19.9374 133.302 19.2958C133.945 18.6541 134.742 18.3333 135.691 18.3333C136.61 18.3333 137.391 18.6541 138.035 19.2958C138.678 19.9374 139 20.7319 139 21.6791C139 22.6263 138.678 23.4208 138.035 24.0624C137.391 24.7041 136.61 25.0249 135.691 25.0249Z" fill="#FF2775"/>
</svg>
